<?xml version="1.0" encoding="UTF-8"?>
<svg id="Layer_2" data-name="Layer 2" xmlns="http://www.w3.org/2000/svg" viewBox="0 0 219.47 298.28">
  <g id="Layer_1-2" data-name="Layer 1">
    <g>
      <path d="M145.55,8c.47,0,.95,0,1.42.02,34.83.75,62.81,29.11,62.81,64s-27.98,63.25-62.81,64c-.47.02-.95.02-1.42.02" fill="none" stroke="#000" stroke-miterlimit="10" stroke-width="16"/>
      <path d="M147.24,168.05c.48,0,.95,0,1.42-.02.27,0,.55,0,.82-.03,34.45-1.17,61.99-29.35,61.99-63.97,0-6.72-1.04-13.19-2.96-19.27h0" fill="none" stroke="#000" stroke-miterlimit="10" stroke-width="16"/>
      <path d="M157.72,40.87c-2.15-.35-4.34-.6-6.55-.73-.83-.05-1.67-.08-2.51-.1-.47-.02-.94-.02-1.42-.02" fill="none" stroke="#000" stroke-miterlimit="10" stroke-width="16"/>
      <path d="M151.17,40c.21,0,.42,0,.62,0,15.28.38,27.56,14.56,27.56,32.01s-12.28,31.63-27.56,32.01c-.21,0-.42,0-.62,0" fill="none" stroke="#000" stroke-miterlimit="10" stroke-width="16"/>
      <path d="M149.48,136.03c.21,0,.42,0,.63,0,1.94-.05,3.83-.32,5.65-.79" fill="none" stroke="#000" stroke-miterlimit="10" stroke-width="16"/>
      <path d="M149.48,72c.21,0,.42,0,.63.01,10.77.27,20.04,7.39,24.57,17.68" fill="none" stroke="#000" stroke-miterlimit="10" stroke-width="16"/>
      <rect x="0" y="0" width="146.21" height="16"/>
      <rect x="32" y="32" width="119.17" height="16"/>
      <rect x="63.97" y="64" width="85.51" height="16"/>
      <rect x="63.97" y="96.03" width="87.54" height="16"/>
      <rect x="-3.11" y="18.83" width="59.88" height="16" transform="translate(26.83 -11.11) rotate(45)"/>
      <polygon points="32.04 296.59 0 270.93 11.32 261.86 43.35 287.53 32.04 296.59"/>
      <rect x="32" y="283.76" width="47.96" height="12.82"/>
      <rect x="4.59" y="128.03" width="11.41" height="16"/>
      <rect x="32" y="128.03" width="16" height="16"/>
      <rect x="63.97" y="128.03" width="85.51" height="16"/>
      <rect x="4.59" y="160.03" width="11.41" height="16"/>
      <rect x="32" y="160.03" width="16" height="16"/>
      <rect x="63.97" y="160.03" width="85.51" height="16"/>
      <rect width="16" height="270.88"/>
      <rect x="32" y="37.23" width="16" height="254.78"/>
      <rect x="63.97" y="64" width="16" height="80.03"/>
      <rect x="63.97" y="128.22" width="16" height="156.93"/>
      <polygon points="152.71 298.28 126.94 277.57 136.94 264.94 162.71 285.66 152.71 298.28"/>
      <polygon points="215.13 291.18 215.13 291.93 215.1 298.17 152.7 298.28 152.75 282.16 189.61 282.1 211.4 282.06 215.13 291.18"/>
      <polygon points="107.64 162.48 142.2 272.73 126.95 277.59 92.38 167.34 107.64 162.48"/>
      <polygon points="141.87 164.6 180.66 288.35 165.4 293.21 126.61 169.46 141.87 164.6"/>
      <polygon points="215.13 291.22 214.92 291.29 199.94 296.07 195.37 281.51 161.47 173.67 176.66 168.83 212.06 281.47 214.92 290.54 215.13 291.22"/>
    </g>
  </g>
</svg>