<?xml version="1.0" encoding="UTF-8"?>
<svg id="Layer_2" data-name="Layer 2" xmlns="http://www.w3.org/2000/svg" viewBox="0 0 89.83 122.09">
  <g id="Layer_1-2" data-name="Layer 1">
    <g>
      <path d="M59.58,3.28c.19,0,.39,0,.58,0,14.25.31,25.71,11.92,25.71,26.2s-11.45,25.89-25.71,26.2c-.19,0-.39,0-.58,0" fill="none" stroke="#fff" stroke-miterlimit="10" stroke-width="6.55"/>
      <path d="M60.27,68.79c.2,0,.39,0,.58,0,.11,0,.23,0,.34-.01,14.1-.48,25.37-12.01,25.37-26.18,0-2.75-.43-5.4-1.21-7.89h0" fill="none" stroke="#fff" stroke-miterlimit="10" stroke-width="6.55"/>
      <path d="M64.56,16.73c-.88-.14-1.78-.25-2.68-.3-.34-.02-.68-.03-1.03-.04-.19,0-.38,0-.58,0" fill="none" stroke="#fff" stroke-miterlimit="10" stroke-width="6.55"/>
      <path d="M61.88,16.37c.09,0,.17,0,.26,0,6.25.15,11.28,5.96,11.28,13.1s-5.03,12.95-11.28,13.1c-.09,0-.17,0-.26,0" fill="none" stroke="#fff" stroke-miterlimit="10" stroke-width="6.55"/>
      <path d="M61.18,55.68c.09,0,.17,0,.26,0,.79-.02,1.57-.13,2.31-.32" fill="none" stroke="#fff" stroke-miterlimit="10" stroke-width="6.55"/>
      <path d="M61.18,29.47c.09,0,.17,0,.26,0,4.41.11,8.2,3.02,10.06,7.24" fill="none" stroke="#fff" stroke-miterlimit="10" stroke-width="6.55"/>
      <rect x="0" y="0" width="59.57" height="6.55" fill="#fff"/>
      <rect x="13.1" y="13.1" width="48.78" height="6.55" fill="#fff"/>
      <rect x="26.18" y="26.2" width="35" height="6.55" fill="#fff"/>
      <rect x="26.18" y="39.31" width="35.83" height="6.55" fill="#fff"/>
      <rect x="-1.27" y="7.71" width="24.51" height="6.55" transform="translate(10.98 -4.55) rotate(45)" fill="#fff"/>
      <polygon points="13.11 121.4 0 110.89 4.63 107.18 17.74 117.69 13.11 121.4" fill="#fff"/>
      <rect x="13.1" y="116.15" width="19.63" height="5.25" fill="#fff"/>
      <rect x="26.18" y="52.4" width="35" height="6.55" fill="#fff"/>
      <rect x="26.18" y="65.5" width="35" height="6.55" fill="#fff"/>
      <rect width="6.55" height="110.88" fill="#fff"/>
      <rect x="13.1" y="15.24" width="6.55" height="104.28" fill="#fff"/>
      <rect x="26.18" y="26.2" width="6.55" height="32.76" fill="#fff"/>
      <rect x="26.18" y="54.54" width="6.55" height="64.23" fill="#fff"/>
      <polygon points="62.51 122.09 51.96 113.61 56.05 108.45 66.6 116.92 62.51 122.09" fill="#fff"/>
      <polygon points="88.06 119.18 88.06 119.49 88.05 122.05 62.5 122.09 62.52 115.49 77.61 115.47 86.53 115.45 88.06 119.18" fill="#fff"/>
      <polygon points="44.06 66.5 58.21 111.63 51.96 113.62 37.81 68.49 44.06 66.5" fill="#fff"/>
      <polygon points="58.07 67.37 73.95 118.03 67.7 120.02 51.82 69.36 58.07 67.37" fill="#fff"/>
      <polygon points="88.06 119.2 87.97 119.23 81.84 121.18 79.97 115.23 66.09 71.09 72.31 69.1 86.8 115.21 87.97 118.92 88.06 119.2" fill="#fff"/>
    </g>
  </g>
</svg>